<svg width="696" height="370" viewBox="0 0 696 370" fill="none" xmlns="http://www.w3.org/2000/svg">
<circle cx="30" cy="68" r="30" fill="#FF932A" fill-opacity="0.5"/>
<path d="M579.321 150.209H520.655C500.404 150.209 483.988 166.625 483.988 186.876V245.543C483.988 265.793 500.404 282.209 520.655 282.209H579.321C599.572 282.209 615.988 265.793 615.988 245.543V186.876C615.988 166.625 599.572 150.209 579.321 150.209Z" fill="#FF932A"/>
<path d="M207.643 147.395V116.303C207.643 96.1011 224.037 79.7241 244.258 79.7241H647.028C667.25 79.7241 683.999 96.1011 683.999 116.303V321.145C683.999 341.347 667.25 357.724 647.028 357.724H244.258C224.037 357.724 207.643 341.347 207.643 321.145V286.395" stroke="#FF932A" stroke-width="5"/>
<path d="M145.908 265.023C136.513 265.023 127.995 263.004 120.356 258.965C112.805 254.838 106.834 249.175 102.444 241.975C98.1417 234.687 95.9905 226.477 95.9905 217.345C95.9905 208.214 98.1417 200.048 102.444 192.848C106.834 185.56 112.805 179.897 120.356 175.858C127.995 171.731 136.556 169.667 146.039 169.667C154.03 169.667 161.23 171.072 167.639 173.882C174.137 176.692 179.581 180.731 183.971 185.999L170.273 198.643C164.039 191.443 156.313 187.843 147.093 187.843C141.386 187.843 136.293 189.116 131.815 191.662C127.337 194.121 123.825 197.589 121.278 202.067C118.82 206.545 117.59 211.638 117.59 217.345C117.59 223.053 118.82 228.145 121.278 232.623C123.825 237.102 127.337 240.614 131.815 243.16C136.293 245.619 141.386 246.848 147.093 246.848C156.313 246.848 164.039 243.204 170.273 235.916L183.971 248.56C179.581 253.916 174.137 257.999 167.639 260.809C161.142 263.619 153.898 265.023 145.908 265.023ZM197.878 171.248H219.082V231.306L263.073 171.248H283.092V263.443H262.019V203.516L218.029 263.443H197.878V171.248ZM376.511 188.633H347.008V263.443H325.935V188.633H296.564V171.248H376.511V188.633ZM389.908 171.248H411.113V231.306L455.103 171.248H475.121V263.443H454.049V203.516L410.059 263.443H389.908V171.248Z" fill="#1F0425"/>
<path d="M581.973 262.136L581.841 206.95L554.709 252.389H545.226L518.094 208.004V262.136H498.075V169.941H515.724L550.231 227.233L584.212 169.941H601.86L601.992 262.136H581.973Z" fill="white"/>
<circle cx="111" cy="113" r="15" fill="#FF932A" fill-opacity="0.5"/>
<ellipse cx="162" cy="17.8853" rx="15" ry="16.9278" fill="#FF932A" fill-opacity="0.5"/>
</svg>
