<svg width="108" height="153" viewBox="0 0 108 153" fill="none" xmlns="http://www.w3.org/2000/svg">
<path d="M42.752 122.176C63.872 122.176 80.256 111.552 80.256 92.352C80.256 72.768 64.896 67.52 47.872 63.552C34.176 60.48 27.136 58.944 27.136 52.544C27.136 47.424 32.384 43.968 40.32 43.968C48.768 43.968 54.144 47.936 55.04 54.976H77.184C76.288 35.776 60.928 26.816 41.088 26.816C20.608 26.816 4.736 35.392 4.736 54.976C4.736 74.176 21.504 79.04 37.376 82.752C49.92 85.824 57.344 87.36 57.344 94.656C57.344 101.568 50.048 104.256 42.624 104.256C31.744 104.256 25.728 100.416 24.704 91.2H1.92C2.432 111.424 18.432 122.176 42.752 122.176Z" fill="black"/>
<rect x="88" y="102" width="20" height="20" fill="#FF6501"/>
</svg>
