<svg width="263" height="82" viewBox="0 0 263 82" fill="none" xmlns="http://www.w3.org/2000/svg">
<rect x="108" y="22" width="36" height="36" rx="10" fill="#FF932A"/>
<path d="M32 21.5V13C32 7.47715 36.4772 3 42 3H152C157.523 3 162 7.47715 162 13V69C162 74.5228 157.523 79 152 79H42C36.4772 79 32 74.5228 32 69V59.5" stroke="#FF932B" stroke-width="5"/>
<path d="M174.494 28.07C173.766 28.07 173.113 27.9113 172.534 27.594C171.965 27.2767 171.517 26.8333 171.19 26.264C170.863 25.6853 170.7 25.0367 170.7 24.318C170.7 23.5993 170.863 22.9553 171.19 22.386C171.517 21.8167 171.965 21.3733 172.534 21.056C173.113 20.7387 173.766 20.58 174.494 20.58C175.129 20.58 175.693 20.706 176.188 20.958C176.692 21.2007 177.089 21.56 177.378 22.036L176.636 22.54C176.393 22.176 176.085 21.9053 175.712 21.728C175.339 21.5413 174.933 21.448 174.494 21.448C173.962 21.448 173.481 21.5693 173.052 21.812C172.632 22.0453 172.301 22.3813 172.058 22.82C171.825 23.2587 171.708 23.758 171.708 24.318C171.708 24.8873 171.825 25.3913 172.058 25.83C172.301 26.2593 172.632 26.5953 173.052 26.838C173.481 27.0713 173.962 27.188 174.494 27.188C174.933 27.188 175.339 27.0993 175.712 26.922C176.085 26.7447 176.393 26.474 176.636 26.11L177.378 26.614C177.089 27.09 176.692 27.454 176.188 27.706C175.684 27.9487 175.119 28.07 174.494 28.07ZM185.62 24.626H179.46C179.516 25.3913 179.81 26.012 180.342 26.488C180.874 26.9547 181.546 27.188 182.358 27.188C182.815 27.188 183.235 27.1087 183.618 26.95C184 26.782 184.332 26.5393 184.612 26.222L185.172 26.866C184.845 27.258 184.434 27.5567 183.94 27.762C183.454 27.9673 182.918 28.07 182.33 28.07C181.574 28.07 180.902 27.9113 180.314 27.594C179.735 27.2673 179.282 26.8193 178.956 26.25C178.629 25.6807 178.466 25.0367 178.466 24.318C178.466 23.5993 178.62 22.9553 178.928 22.386C179.245 21.8167 179.674 21.3733 180.216 21.056C180.766 20.7387 181.382 20.58 182.064 20.58C182.745 20.58 183.356 20.7387 183.898 21.056C184.439 21.3733 184.864 21.8167 185.172 22.386C185.48 22.946 185.634 23.59 185.634 24.318L185.62 24.626ZM182.064 21.434C181.354 21.434 180.757 21.6627 180.272 22.12C179.796 22.568 179.525 23.156 179.46 23.884H184.682C184.616 23.156 184.341 22.568 183.856 22.12C183.38 21.6627 182.782 21.434 182.064 21.434ZM192.686 21.518H189.9V28H188.906V21.518H186.12V20.636H192.686V21.518ZM197.287 23.24C198.211 23.2493 198.911 23.4547 199.387 23.856C199.872 24.2573 200.115 24.836 200.115 25.592C200.115 26.376 199.854 26.978 199.331 27.398C198.818 27.818 198.071 28.0233 197.091 28.014L194.123 28V20.636H195.117V23.212L197.287 23.24ZM197.035 27.258C197.716 27.2673 198.23 27.132 198.575 26.852C198.93 26.5627 199.107 26.1427 199.107 25.592C199.107 25.0507 198.934 24.6493 198.589 24.388C198.244 24.1267 197.726 23.9913 197.035 23.982L195.117 23.954V27.23L197.035 27.258ZM178.022 37.636V45H177.028V38.518H172.408V45H171.414V37.636H178.022ZM184.642 37.58C185.332 37.58 185.958 37.7387 186.518 38.056C187.078 38.364 187.516 38.8027 187.834 39.372C188.151 39.9413 188.31 40.59 188.31 41.318C188.31 42.0553 188.151 42.7087 187.834 43.278C187.516 43.8473 187.078 44.2907 186.518 44.608C185.967 44.916 185.342 45.07 184.642 45.07C184.044 45.07 183.503 44.9487 183.018 44.706C182.542 44.454 182.15 44.09 181.842 43.614V47.716H180.848V37.636H181.8V39.092C182.098 38.6067 182.49 38.2333 182.976 37.972C183.47 37.7107 184.026 37.58 184.642 37.58ZM184.572 44.188C185.085 44.188 185.552 44.0713 185.972 43.838C186.392 43.5953 186.718 43.2547 186.952 42.816C187.194 42.3773 187.316 41.878 187.316 41.318C187.316 40.758 187.194 40.2633 186.952 39.834C186.718 39.3953 186.392 39.0547 185.972 38.812C185.552 38.5693 185.085 38.448 184.572 38.448C184.049 38.448 183.578 38.5693 183.158 38.812C182.747 39.0547 182.42 39.3953 182.178 39.834C181.944 40.2633 181.828 40.758 181.828 41.318C181.828 41.878 181.944 42.3773 182.178 42.816C182.42 43.2547 182.747 43.5953 183.158 43.838C183.578 44.0713 184.049 44.188 184.572 44.188ZM193.483 45.07C192.774 45.07 192.135 44.9113 191.565 44.594C190.996 44.2673 190.548 43.8193 190.221 43.25C189.895 42.6807 189.731 42.0367 189.731 41.318C189.731 40.5993 189.895 39.9553 190.221 39.386C190.548 38.8167 190.996 38.3733 191.565 38.056C192.135 37.7387 192.774 37.58 193.483 37.58C194.193 37.58 194.832 37.7387 195.401 38.056C195.971 38.3733 196.414 38.8167 196.731 39.386C197.058 39.9553 197.221 40.5993 197.221 41.318C197.221 42.0367 197.058 42.6807 196.731 43.25C196.414 43.8193 195.971 44.2673 195.401 44.594C194.832 44.9113 194.193 45.07 193.483 45.07ZM193.483 44.188C194.006 44.188 194.473 44.0713 194.883 43.838C195.303 43.5953 195.63 43.2547 195.863 42.816C196.097 42.3773 196.213 41.878 196.213 41.318C196.213 40.758 196.097 40.2587 195.863 39.82C195.63 39.3813 195.303 39.0453 194.883 38.812C194.473 38.5693 194.006 38.448 193.483 38.448C192.961 38.448 192.489 38.5693 192.069 38.812C191.659 39.0453 191.332 39.3813 191.089 39.82C190.856 40.2587 190.739 40.758 190.739 41.318C190.739 41.878 190.856 42.3773 191.089 42.816C191.332 43.2547 191.659 43.5953 192.069 43.838C192.489 44.0713 192.961 44.188 193.483 44.188ZM202.426 45.07C201.698 45.07 201.044 44.9113 200.466 44.594C199.896 44.2767 199.448 43.8333 199.122 43.264C198.795 42.6853 198.632 42.0367 198.632 41.318C198.632 40.5993 198.795 39.9553 199.122 39.386C199.448 38.8167 199.896 38.3733 200.466 38.056C201.044 37.7387 201.698 37.58 202.426 37.58C203.06 37.58 203.625 37.706 204.12 37.958C204.624 38.2007 205.02 38.56 205.31 39.036L204.568 39.54C204.325 39.176 204.017 38.9053 203.644 38.728C203.27 38.5413 202.864 38.448 202.426 38.448C201.894 38.448 201.413 38.5693 200.984 38.812C200.564 39.0453 200.232 39.3813 199.99 39.82C199.756 40.2587 199.64 40.758 199.64 41.318C199.64 41.8873 199.756 42.3913 199.99 42.83C200.232 43.2593 200.564 43.5953 200.984 43.838C201.413 44.0713 201.894 44.188 202.426 44.188C202.864 44.188 203.27 44.0993 203.644 43.922C204.017 43.7447 204.325 43.474 204.568 43.11L205.31 43.614C205.02 44.09 204.624 44.454 204.12 44.706C203.616 44.9487 203.051 45.07 202.426 45.07ZM212.278 38.518H209.492V45H208.498V38.518H205.712V37.636H212.278V38.518ZM217.509 37.58C218.199 37.58 218.825 37.7387 219.385 38.056C219.945 38.364 220.383 38.8027 220.701 39.372C221.018 39.9413 221.177 40.59 221.177 41.318C221.177 42.0553 221.018 42.7087 220.701 43.278C220.383 43.8473 219.945 44.2907 219.385 44.608C218.834 44.916 218.209 45.07 217.509 45.07C216.911 45.07 216.37 44.9487 215.885 44.706C215.409 44.454 215.017 44.09 214.709 43.614V47.716H213.715V37.636H214.667V39.092C214.965 38.6067 215.357 38.2333 215.843 37.972C216.337 37.7107 216.893 37.58 217.509 37.58ZM217.439 44.188C217.952 44.188 218.419 44.0713 218.839 43.838C219.259 43.5953 219.585 43.2547 219.819 42.816C220.061 42.3773 220.183 41.878 220.183 41.318C220.183 40.758 220.061 40.2633 219.819 39.834C219.585 39.3953 219.259 39.0547 218.839 38.812C218.419 38.5693 217.952 38.448 217.439 38.448C216.916 38.448 216.445 38.5693 216.025 38.812C215.614 39.0547 215.287 39.3953 215.045 39.834C214.811 40.2633 214.695 40.758 214.695 41.318C214.695 41.878 214.811 42.3773 215.045 42.816C215.287 43.2547 215.614 43.5953 216.025 43.838C216.445 44.0713 216.916 44.188 217.439 44.188ZM225.805 37.58C226.767 37.58 227.504 37.8227 228.017 38.308C228.531 38.784 228.787 39.4933 228.787 40.436V45H227.835V43.852C227.611 44.2347 227.28 44.5333 226.841 44.748C226.412 44.9627 225.899 45.07 225.301 45.07C224.48 45.07 223.827 44.874 223.341 44.482C222.856 44.09 222.613 43.572 222.613 42.928C222.613 42.3027 222.837 41.7987 223.285 41.416C223.743 41.0333 224.466 40.842 225.455 40.842H227.793V40.394C227.793 39.7593 227.616 39.2787 227.261 38.952C226.907 38.616 226.389 38.448 225.707 38.448C225.241 38.448 224.793 38.5273 224.363 38.686C223.934 38.8353 223.565 39.0453 223.257 39.316L222.809 38.574C223.183 38.2567 223.631 38.014 224.153 37.846C224.676 37.6687 225.227 37.58 225.805 37.58ZM225.455 44.286C226.015 44.286 226.496 44.16 226.897 43.908C227.299 43.6467 227.597 43.2733 227.793 42.788V41.584H225.483C224.223 41.584 223.593 42.0227 223.593 42.9C223.593 43.3293 223.757 43.67 224.083 43.922C224.41 44.1647 224.867 44.286 225.455 44.286ZM231.434 37.636H232.428V40.898H237.062V37.636H238.056V45H237.062V41.752H232.428V45H231.434V37.636ZM243.961 45.07C243.233 45.07 242.579 44.9113 242.001 44.594C241.431 44.2767 240.983 43.8333 240.657 43.264C240.33 42.6853 240.167 42.0367 240.167 41.318C240.167 40.5993 240.33 39.9553 240.657 39.386C240.983 38.8167 241.431 38.3733 242.001 38.056C242.579 37.7387 243.233 37.58 243.961 37.58C244.595 37.58 245.16 37.706 245.655 37.958C246.159 38.2007 246.555 38.56 246.845 39.036L246.103 39.54C245.86 39.176 245.552 38.9053 245.179 38.728C244.805 38.5413 244.399 38.448 243.961 38.448C243.429 38.448 242.948 38.5693 242.519 38.812C242.099 39.0453 241.767 39.3813 241.525 39.82C241.291 40.2587 241.175 40.758 241.175 41.318C241.175 41.8873 241.291 42.3913 241.525 42.83C241.767 43.2593 242.099 43.5953 242.519 43.838C242.948 44.0713 243.429 44.188 243.961 44.188C244.399 44.188 244.805 44.0993 245.179 43.922C245.552 43.7447 245.86 43.474 246.103 43.11L246.845 43.614C246.555 44.09 246.159 44.454 245.655 44.706C245.151 44.9487 244.586 45.07 243.961 45.07ZM253.813 38.518H251.027V45H250.033V38.518H247.247V37.636H253.813V38.518ZM259.94 41.192C260.939 41.4253 261.438 42.0273 261.438 42.998C261.438 43.642 261.2 44.1367 260.724 44.482C260.248 44.8273 259.539 45 258.596 45H255.25V37.636H258.498C259.338 37.636 259.996 37.7993 260.472 38.126C260.948 38.4527 261.186 38.9193 261.186 39.526C261.186 39.9273 261.074 40.2727 260.85 40.562C260.635 40.842 260.332 41.052 259.94 41.192ZM256.216 40.912H258.428C258.997 40.912 259.431 40.8047 259.73 40.59C260.038 40.3753 260.192 40.0627 260.192 39.652C260.192 39.2413 260.038 38.9333 259.73 38.728C259.431 38.5227 258.997 38.42 258.428 38.42H256.216V40.912ZM258.554 44.216C259.189 44.216 259.665 44.1133 259.982 43.908C260.299 43.7027 260.458 43.3807 260.458 42.942C260.458 42.5033 260.313 42.1813 260.024 41.976C259.735 41.7613 259.277 41.654 258.652 41.654H256.216V44.216H258.554ZM175.208 54.58C175.899 54.58 176.524 54.7387 177.084 55.056C177.644 55.364 178.083 55.8027 178.4 56.372C178.717 56.9413 178.876 57.59 178.876 58.318C178.876 59.0553 178.717 59.7087 178.4 60.278C178.083 60.8473 177.644 61.2907 177.084 61.608C176.533 61.916 175.908 62.07 175.208 62.07C174.611 62.07 174.069 61.9487 173.584 61.706C173.108 61.454 172.716 61.09 172.408 60.614V64.716H171.414V54.636H172.366V56.092C172.665 55.6067 173.057 55.2333 173.542 54.972C174.037 54.7107 174.592 54.58 175.208 54.58ZM175.138 61.188C175.651 61.188 176.118 61.0713 176.538 60.838C176.958 60.5953 177.285 60.2547 177.518 59.816C177.761 59.3773 177.882 58.878 177.882 58.318C177.882 57.758 177.761 57.2633 177.518 56.834C177.285 56.3953 176.958 56.0547 176.538 55.812C176.118 55.5693 175.651 55.448 175.138 55.448C174.615 55.448 174.144 55.5693 173.724 55.812C173.313 56.0547 172.987 56.3953 172.744 56.834C172.511 57.2633 172.394 57.758 172.394 58.318C172.394 58.878 172.511 59.3773 172.744 59.816C172.987 60.2547 173.313 60.5953 173.724 60.838C174.144 61.0713 174.615 61.188 175.138 61.188ZM183.505 54.58C184.466 54.58 185.203 54.8227 185.717 55.308C186.23 55.784 186.487 56.4933 186.487 57.436V62H185.535V60.852C185.311 61.2347 184.979 61.5333 184.541 61.748C184.111 61.9627 183.598 62.07 183.001 62.07C182.179 62.07 181.526 61.874 181.041 61.482C180.555 61.09 180.313 60.572 180.313 59.928C180.313 59.3027 180.537 58.7987 180.985 58.416C181.442 58.0333 182.165 57.842 183.155 57.842H185.493V57.394C185.493 56.7593 185.315 56.2787 184.961 55.952C184.606 55.616 184.088 55.448 183.407 55.448C182.94 55.448 182.492 55.5273 182.063 55.686C181.633 55.8353 181.265 56.0453 180.957 56.316L180.509 55.574C180.882 55.2567 181.33 55.014 181.853 54.846C182.375 54.6687 182.926 54.58 183.505 54.58ZM183.155 61.286C183.715 61.286 184.195 61.16 184.597 60.908C184.998 60.6467 185.297 60.2733 185.493 59.788V58.584H183.183C181.923 58.584 181.293 59.0227 181.293 59.9C181.293 60.3293 181.456 60.67 181.783 60.922C182.109 61.1647 182.567 61.286 183.155 61.286ZM192.566 58.164C193.089 58.2853 193.49 58.4953 193.77 58.794C194.06 59.0927 194.204 59.4567 194.204 59.886C194.204 60.3153 194.055 60.698 193.756 61.034C193.467 61.37 193.07 61.6313 192.566 61.818C192.062 61.9953 191.507 62.084 190.9 62.084C190.368 62.084 189.846 62.0093 189.332 61.86C188.819 61.7013 188.371 61.4727 187.988 61.174L188.324 60.432C188.66 60.684 189.052 60.88 189.5 61.02C189.948 61.16 190.401 61.23 190.858 61.23C191.54 61.23 192.095 61.104 192.524 60.852C192.963 60.5907 193.182 60.2407 193.182 59.802C193.182 59.41 193.005 59.1067 192.65 58.892C192.296 58.668 191.81 58.556 191.194 58.556H189.934V57.828H191.138C191.689 57.828 192.132 57.7253 192.468 57.52C192.804 57.3053 192.972 57.0207 192.972 56.666C192.972 56.274 192.781 55.966 192.398 55.742C192.025 55.518 191.535 55.406 190.928 55.406C190.135 55.406 189.351 55.6067 188.576 56.008L188.296 55.238C189.174 54.7807 190.084 54.552 191.026 54.552C191.586 54.552 192.09 54.636 192.538 54.804C192.996 54.9627 193.35 55.1913 193.602 55.49C193.864 55.7887 193.994 56.134 193.994 56.526C193.994 56.8993 193.864 57.2307 193.602 57.52C193.35 57.8093 193.005 58.024 192.566 58.164ZM201.151 58.192C202.15 58.4253 202.649 59.0273 202.649 59.998C202.649 60.642 202.411 61.1367 201.935 61.482C201.459 61.8273 200.75 62 199.807 62H196.461V54.636H199.709C200.549 54.636 201.207 54.7993 201.683 55.126C202.159 55.4527 202.397 55.9193 202.397 56.526C202.397 56.9273 202.285 57.2727 202.061 57.562C201.846 57.842 201.543 58.052 201.151 58.192ZM197.427 57.912H199.639C200.208 57.912 200.642 57.8047 200.941 57.59C201.249 57.3753 201.403 57.0627 201.403 56.652C201.403 56.2413 201.249 55.9333 200.941 55.728C200.642 55.5227 200.208 55.42 199.639 55.42H197.427V57.912ZM199.765 61.216C200.4 61.216 200.876 61.1133 201.193 60.908C201.51 60.7027 201.669 60.3807 201.669 59.942C201.669 59.5033 201.524 59.1813 201.235 58.976C200.946 58.7613 200.488 58.654 199.863 58.654H197.427V61.216H199.765ZM204.978 54.636H205.972V60.488L210.886 54.636H211.768V62H210.774V56.148L205.874 62H204.978V54.636ZM219.797 55.518H217.011V62H216.017V55.518H213.231V54.636H219.797V55.518ZM221.234 54.636H222.228V60.488L227.142 54.636H228.024V62H227.03V56.148L222.13 62H221.234V54.636ZM236.529 54.636V62H235.619V59.564H233.309H233.029L231.321 62H230.243L232.077 59.424C231.508 59.2653 231.069 58.9947 230.761 58.612C230.453 58.2293 230.299 57.744 230.299 57.156C230.299 56.3347 230.579 55.7093 231.139 55.28C231.699 54.8507 232.464 54.636 233.435 54.636H236.529ZM231.307 57.184C231.307 58.276 232.002 58.822 233.393 58.822H235.619V55.518H233.463C232.026 55.518 231.307 56.0733 231.307 57.184Z" fill="black"/>
<path d="M15.1281 53.432C12.5601 53.432 10.2321 52.88 8.14408 51.776C6.08008 50.648 4.44808 49.1 3.24808 47.132C2.07208 45.14 1.48408 42.896 1.48408 40.4C1.48408 37.904 2.07208 35.672 3.24808 33.704C4.44808 31.712 6.08008 30.164 8.14408 29.06C10.2321 27.932 12.5721 27.368 15.1641 27.368C17.3481 27.368 19.3161 27.752 21.0681 28.52C22.8441 29.288 24.3321 30.392 25.5321 31.832L21.7881 35.288C20.0841 33.32 17.9721 32.336 15.4521 32.336C13.8921 32.336 12.5001 32.684 11.2761 33.38C10.0521 34.052 9.09208 35 8.39608 36.224C7.72408 37.448 7.38808 38.84 7.38808 40.4C7.38808 41.96 7.72408 43.352 8.39608 44.576C9.09208 45.8 10.0521 46.76 11.2761 47.456C12.5001 48.128 13.8921 48.464 15.4521 48.464C17.9721 48.464 20.0841 47.468 21.7881 45.476L25.5321 48.932C24.3321 50.396 22.8441 51.512 21.0681 52.28C19.2921 53.048 17.3121 53.432 15.1281 53.432ZM29.3332 27.8H35.1292V44.216L47.1532 27.8H52.6252V53H46.8652V36.62L34.8412 53H29.3332V27.8ZM78.1596 32.552H70.0956V53H64.3356V32.552H56.3076V27.8H78.1596V32.552ZM81.8215 27.8H87.6175V44.216L99.6415 27.8H105.113V53H99.3535V36.62L87.3295 53H81.8215V27.8Z" fill="black"/>
<path d="M134.32 53L134.284 37.916L126.868 50.336H124.276L116.86 38.204V53H111.388V27.8H116.212L125.644 43.46L134.932 27.8H139.756L139.792 53H134.32Z" fill="white"/>
</svg>
