<svg width="263" height="82" viewBox="0 0 263 82" fill="none" xmlns="http://www.w3.org/2000/svg">
<rect x="108" y="22" width="36" height="36" rx="10" fill="#FF932A"/>
<path d="M32 21.5V13C32 7.47715 36.4772 3 42 3H152C157.523 3 162 7.47715 162 13V69C162 74.5228 157.523 79 152 79H42C36.4772 79 32 74.5228 32 69V59.5" stroke="#FF932B" stroke-width="5"/>
<path d="M15.1281 53.432C12.5601 53.432 10.2321 52.88 8.14408 51.776C6.08008 50.648 4.44808 49.1 3.24808 47.132C2.07208 45.14 1.48408 42.896 1.48408 40.4C1.48408 37.904 2.07208 35.672 3.24808 33.704C4.44808 31.712 6.08008 30.164 8.14408 29.06C10.2321 27.932 12.5721 27.368 15.1641 27.368C17.3481 27.368 19.3161 27.752 21.0681 28.52C22.8441 29.288 24.3321 30.392 25.5321 31.832L21.7881 35.288C20.0841 33.32 17.9721 32.336 15.4521 32.336C13.8921 32.336 12.5001 32.684 11.2761 33.38C10.0521 34.052 9.09208 35 8.39608 36.224C7.72408 37.448 7.38808 38.84 7.38808 40.4C7.38808 41.96 7.72408 43.352 8.39608 44.576C9.09208 45.8 10.0521 46.76 11.2761 47.456C12.5001 48.128 13.8921 48.464 15.4521 48.464C17.9721 48.464 20.0841 47.468 21.7881 45.476L25.5321 48.932C24.3321 50.396 22.8441 51.512 21.0681 52.28C19.2921 53.048 17.3121 53.432 15.1281 53.432ZM29.3332 27.8H35.1292V44.216L47.1532 27.8H52.6252V53H46.8652V36.62L34.8412 53H29.3332V27.8ZM78.1596 32.552H70.0956V53H64.3356V32.552H56.3076V27.8H78.1596V32.552ZM81.8215 27.8H87.6175V44.216L99.6415 27.8H105.113V53H99.3535V36.62L87.3295 53H81.8215V27.8Z" fill="white"/>
<path d="M134.32 53L134.284 37.916L126.868 50.336H124.276L116.86 38.204V53H111.388V27.8H116.212L125.644 43.46L134.932 27.8H139.756L139.792 53H134.32Z" fill="white"/>
</svg>
