<svg width="964" height="300" viewBox="0 0 964 300" fill="none" xmlns="http://www.w3.org/2000/svg">
<path d="M491.163 80.4878H432.517C412.274 80.4878 395.863 96.8676 395.863 117.073V175.61C395.863 195.815 412.274 212.195 432.517 212.195H491.163C511.407 212.195 527.817 195.815 527.817 175.61V117.073C527.817 96.8676 511.407 80.4878 491.163 80.4878Z" fill="#FF932A"/>
<path d="M117.293 78.6585V47.561C117.293 27.3554 133.703 10.9756 153.947 10.9756H557.141C577.385 10.9756 593.795 27.3554 593.795 47.561V252.439C593.795 272.644 577.385 289.024 557.141 289.024H153.947C133.703 289.024 117.293 272.644 117.293 252.439V217.683" stroke="#FF932A" stroke-width="5"/>
<path d="M639.59 102.695C636.922 102.695 634.528 102.115 632.406 100.954C630.32 99.7928 628.678 98.1707 627.48 96.0878C626.281 93.9707 625.684 91.5977 625.684 88.9683C625.684 86.3389 626.281 83.9828 627.48 81.9C628.678 79.8172 630.32 78.195 632.406 77.0342C634.528 75.8733 636.922 75.2927 639.59 75.2927C641.918 75.2927 643.985 75.7537 645.799 76.6757C647.647 77.5636 649.102 78.8781 650.161 80.6196L647.441 82.4635C646.551 81.1318 645.422 80.1414 644.055 79.4927C642.687 78.8097 641.199 78.4683 639.59 78.4683C637.64 78.4683 635.877 78.9121 634.305 79.8C632.765 80.6536 631.552 81.8828 630.661 83.4878C629.807 85.0928 629.378 86.9196 629.378 88.9683C629.378 91.0511 629.807 92.895 630.661 94.5C631.552 96.0707 632.765 97.2999 634.305 98.1878C635.877 99.0414 637.64 99.4683 639.59 99.4683C641.199 99.4683 642.687 99.1438 644.055 98.4952C645.422 97.8465 646.551 96.8561 647.441 95.5244L650.161 97.3683C649.102 99.1098 647.647 100.442 645.799 101.363C643.952 102.251 641.881 102.695 639.59 102.695ZM680.371 90.0952H657.793C657.998 92.895 659.075 95.1659 661.025 96.9074C662.975 98.6148 665.439 99.4683 668.415 99.4683C670.09 99.4683 671.629 99.1782 673.033 98.5976C674.433 97.983 675.65 97.095 676.677 95.9342L678.729 98.2903C677.531 99.7244 676.024 100.817 674.214 101.568C672.432 102.319 670.467 102.695 668.312 102.695C665.541 102.695 663.078 102.115 660.923 100.954C658.8 99.7585 657.14 98.1194 655.945 96.0366C654.747 93.9538 654.149 91.5977 654.149 88.9683C654.149 86.3389 654.714 83.9828 655.842 81.9C657.004 79.8172 658.577 78.195 660.564 77.0342C662.58 75.8733 664.837 75.2927 667.337 75.2927C669.833 75.2927 672.073 75.8733 674.06 77.0342C676.043 78.195 677.6 79.8172 678.729 81.9C679.858 83.9488 680.423 86.3049 680.423 88.9683L680.371 90.0952ZM667.337 78.4171C664.735 78.4171 662.547 79.2538 660.769 80.9269C659.024 82.5659 658.031 84.7171 657.793 87.3805H676.933C676.691 84.7171 675.683 82.5659 673.906 80.9269C672.161 79.2538 669.969 78.4171 667.337 78.4171ZM706.271 78.7244H696.059V102.439H692.416V78.7244H682.204V75.4976H706.271V78.7244ZM723.136 85.0244C726.522 85.0585 729.088 85.8099 730.833 87.2781C732.611 88.7463 733.501 90.8635 733.501 93.6293C733.501 96.4976 732.545 98.7 730.628 100.237C728.747 101.773 726.009 102.524 722.417 102.49L711.538 102.439V75.4976H715.182V84.922L723.136 85.0244ZM722.212 99.7244C724.708 99.7585 726.592 99.2635 727.857 98.2391C729.158 97.1806 729.807 95.6441 729.807 93.6293C729.807 91.6489 729.173 90.1804 727.908 89.2244C726.643 88.2685 724.745 87.7731 722.212 87.7391L715.182 87.6366V99.622L722.212 99.7244ZM652.522 137.693V164.634H648.878V140.92H631.944V164.634H628.301V137.693H652.522ZM676.787 137.488C679.316 137.488 681.61 138.068 683.663 139.229C685.716 140.356 687.321 141.961 688.487 144.044C689.648 146.127 690.231 148.5 690.231 151.163C690.231 153.861 689.648 156.251 688.487 158.334C687.321 160.417 685.716 162.039 683.663 163.2C681.643 164.327 679.352 164.89 676.787 164.89C674.595 164.89 672.612 164.447 670.834 163.559C669.089 162.637 667.652 161.305 666.523 159.563V174.571H662.88V137.693H666.37V143.02C667.462 141.244 668.899 139.878 670.68 138.922C672.491 137.966 674.529 137.488 676.787 137.488ZM676.53 161.663C678.41 161.663 680.122 161.237 681.662 160.383C683.201 159.495 684.396 158.249 685.254 156.644C686.141 155.039 686.588 153.212 686.588 151.163C686.588 149.115 686.141 147.305 685.254 145.734C684.396 144.129 683.201 142.883 681.662 141.995C680.122 141.107 678.41 140.663 676.53 140.663C674.613 140.663 672.887 141.107 671.347 141.995C669.841 142.883 668.642 144.129 667.755 145.734C666.897 147.305 666.472 149.115 666.472 151.163C666.472 153.212 666.897 155.039 667.755 156.644C668.642 158.249 669.841 159.495 671.347 160.383C672.887 161.237 674.613 161.663 676.53 161.663ZM709.192 164.89C706.594 164.89 704.251 164.31 702.162 163.149C700.077 161.954 698.434 160.315 697.236 158.232C696.041 156.149 695.44 153.793 695.44 151.163C695.44 148.534 696.041 146.178 697.236 144.095C698.434 142.012 700.077 140.39 702.162 139.229C704.251 138.068 706.594 137.488 709.192 137.488C711.795 137.488 714.137 138.068 716.223 139.229C718.312 140.39 719.936 142.012 721.098 144.095C722.296 146.178 722.894 148.534 722.894 151.163C722.894 153.793 722.296 156.149 721.098 158.232C719.936 160.315 718.312 161.954 716.223 163.149C714.137 164.31 711.795 164.89 709.192 164.89ZM709.192 161.663C711.109 161.663 712.821 161.237 714.324 160.383C715.863 159.495 717.062 158.249 717.916 156.644C718.774 155.039 719.199 153.212 719.199 151.163C719.199 149.115 718.774 147.288 717.916 145.683C717.062 144.078 715.863 142.849 714.324 141.995C712.821 141.107 711.109 140.663 709.192 140.663C707.279 140.663 705.549 141.107 704.01 141.995C702.507 142.849 701.308 144.078 700.417 145.683C699.563 147.288 699.135 149.115 699.135 151.163C699.135 153.212 699.563 155.039 700.417 156.644C701.308 158.249 702.507 159.495 704.01 160.383C705.549 161.237 707.279 161.663 709.192 161.663ZM741.972 164.89C739.304 164.89 736.906 164.31 734.788 163.149C732.699 161.988 731.056 160.366 729.862 158.283C728.663 156.166 728.066 153.793 728.066 151.163C728.066 148.534 728.663 146.178 729.862 144.095C731.056 142.012 732.699 140.39 734.788 139.229C736.906 138.068 739.304 137.488 741.972 137.488C744.296 137.488 746.367 137.949 748.181 138.871C750.029 139.759 751.48 141.073 752.543 142.815L749.823 144.659C748.933 143.327 747.804 142.337 746.437 141.688C745.066 141.005 743.577 140.663 741.972 140.663C740.022 140.663 738.259 141.107 736.687 141.995C735.147 142.849 733.93 144.078 733.043 145.683C732.185 147.288 731.76 149.115 731.76 151.163C731.76 153.246 732.185 155.09 733.043 156.695C733.93 158.266 735.147 159.495 736.687 160.383C738.259 161.237 740.022 161.663 741.972 161.663C743.577 161.663 745.066 161.339 746.437 160.69C747.804 160.042 748.933 159.051 749.823 157.72L752.543 159.563C751.48 161.305 750.029 162.637 748.181 163.559C746.334 164.447 744.263 164.89 741.972 164.89ZM778.084 140.92H767.872V164.634H764.228V140.92H754.017V137.693H778.084V140.92ZM797.257 137.488C799.786 137.488 802.081 138.068 804.134 139.229C806.186 140.356 807.792 141.961 808.957 144.044C810.119 146.127 810.702 148.5 810.702 151.163C810.702 153.861 810.119 156.251 808.957 158.334C807.792 160.417 806.186 162.039 804.134 163.2C802.114 164.327 799.823 164.89 797.257 164.89C795.065 164.89 793.082 164.447 791.305 163.559C789.56 162.637 788.123 161.305 786.994 159.563V174.571H783.351V137.693H786.84V143.02C787.933 141.244 789.369 139.878 791.151 138.922C792.961 137.966 794.999 137.488 797.257 137.488ZM797.001 161.663C798.881 161.663 800.593 161.237 802.132 160.383C803.672 159.495 804.867 158.249 805.724 156.644C806.611 155.039 807.059 153.212 807.059 151.163C807.059 149.115 806.611 147.305 805.724 145.734C804.867 144.129 803.672 142.883 802.132 141.995C800.593 141.107 798.881 140.663 797.001 140.663C795.084 140.663 793.357 141.107 791.818 141.995C790.311 142.883 789.113 144.129 788.226 145.734C787.368 147.305 786.943 149.115 786.943 151.163C786.943 153.212 787.368 155.039 788.226 156.644C789.113 158.249 790.311 159.495 791.818 160.383C793.357 161.237 795.084 161.663 797.001 161.663ZM827.665 137.488C831.192 137.488 833.893 138.376 835.773 140.151C837.657 141.893 838.596 144.488 838.596 147.937V164.634H835.106V160.434C834.285 161.834 833.072 162.927 831.463 163.712C829.89 164.498 828.01 164.89 825.818 164.89C822.809 164.89 820.415 164.173 818.634 162.739C816.856 161.305 815.965 159.41 815.965 157.054C815.965 154.766 816.787 152.922 818.429 151.522C820.107 150.122 822.757 149.422 826.383 149.422H834.952V147.783C834.952 145.461 834.303 143.703 833.002 142.507C831.705 141.278 829.806 140.663 827.306 140.663C825.598 140.663 823.956 140.954 822.38 141.534C820.807 142.08 819.455 142.849 818.326 143.839L816.684 141.124C818.055 139.964 819.697 139.076 821.61 138.461C823.527 137.812 825.547 137.488 827.665 137.488ZM826.383 162.022C828.435 162.022 830.198 161.561 831.668 160.639C833.142 159.683 834.234 158.317 834.952 156.541V152.137H826.485C821.867 152.137 819.558 153.742 819.558 156.951C819.558 158.522 820.159 159.768 821.354 160.69C822.552 161.578 824.227 162.022 826.383 162.022ZM848.298 137.693H851.941V149.627H868.927V137.693H872.57V164.634H868.927V152.751H851.941V164.634H848.298V137.693ZM894.214 164.89C891.546 164.89 889.149 164.31 887.03 163.149C884.941 161.988 883.299 160.366 882.104 158.283C880.905 156.166 880.308 153.793 880.308 151.163C880.308 148.534 880.905 146.178 882.104 144.095C883.299 142.012 884.941 140.39 887.03 139.229C889.149 138.068 891.546 137.488 894.214 137.488C896.538 137.488 898.609 137.949 900.424 138.871C902.271 139.759 903.722 141.073 904.785 142.815L902.066 144.659C901.175 143.327 900.046 142.337 898.679 141.688C897.308 141.005 895.82 140.663 894.214 140.663C892.264 140.663 890.501 141.107 888.929 141.995C887.389 142.849 886.173 144.078 885.285 145.683C884.428 147.288 884.003 149.115 884.003 151.163C884.003 153.246 884.428 155.09 885.285 156.695C886.173 158.266 887.389 159.495 888.929 160.383C890.501 161.237 892.264 161.663 894.214 161.663C895.82 161.663 897.308 161.339 898.679 160.69C900.046 160.042 901.175 159.051 902.066 157.72L904.785 159.563C903.722 161.305 902.271 162.637 900.424 163.559C898.576 164.447 896.505 164.89 894.214 164.89ZM930.326 140.92H920.114V164.634H916.471V140.92H906.259V137.693H930.326V140.92ZM952.784 150.702C956.446 151.556 958.275 153.758 958.275 157.31C958.275 159.666 957.402 161.476 955.658 162.739C953.913 164.002 951.314 164.634 947.858 164.634H935.593V137.693H947.498C950.577 137.693 952.989 138.29 954.734 139.485C956.479 140.681 957.351 142.388 957.351 144.607C957.351 146.076 956.94 147.339 956.119 148.398C955.331 149.422 954.221 150.19 952.784 150.702ZM939.134 149.678H947.242C949.327 149.678 950.918 149.286 952.014 148.5C953.143 147.715 953.707 146.571 953.707 145.068C953.707 143.566 953.143 142.439 952.014 141.688C950.918 140.937 949.327 140.561 947.242 140.561H939.134V149.678ZM947.704 161.766C950.031 161.766 951.776 161.39 952.938 160.639C954.1 159.888 954.683 158.71 954.683 157.105C954.683 155.5 954.151 154.322 953.092 153.571C952.032 152.785 950.354 152.393 948.063 152.393H939.134V161.766H947.704ZM642.207 199.683C644.74 199.683 647.031 200.264 649.084 201.424C651.136 202.551 652.745 204.156 653.907 206.239C655.069 208.322 655.652 210.695 655.652 213.359C655.652 216.056 655.069 218.446 653.907 220.529C652.745 222.612 651.136 224.234 649.084 225.395C647.064 226.522 644.773 227.085 642.207 227.085C640.019 227.085 638.032 226.642 636.255 225.754C634.51 224.832 633.073 223.5 631.944 221.759V236.766H628.301V199.888H631.79V205.215C632.886 203.439 634.323 202.073 636.101 201.117C637.915 200.161 639.949 199.683 642.207 199.683ZM641.951 223.859C643.831 223.859 645.543 223.432 647.082 222.578C648.622 221.69 649.82 220.444 650.674 218.839C651.565 217.234 652.009 215.407 652.009 213.359C652.009 211.31 651.565 209.5 650.674 207.929C649.82 206.324 648.622 205.078 647.082 204.19C645.543 203.302 643.831 202.859 641.951 202.859C640.034 202.859 638.307 203.302 636.768 204.19C635.261 205.078 634.066 206.324 633.176 207.929C632.322 209.5 631.893 211.31 631.893 213.359C631.893 215.407 632.322 217.234 633.176 218.839C634.066 220.444 635.261 221.69 636.768 222.578C638.307 223.432 640.034 223.859 641.951 223.859ZM672.619 199.683C676.142 199.683 678.843 200.571 680.727 202.346C682.607 204.088 683.549 206.683 683.549 210.132V226.829H680.06V222.629C679.239 224.029 678.022 225.122 676.416 225.907C674.84 226.693 672.96 227.085 670.772 227.085C667.759 227.085 665.365 226.368 663.588 224.934C661.806 223.5 660.919 221.605 660.919 219.249C660.919 216.961 661.74 215.117 663.382 213.717C665.057 212.317 667.707 211.617 671.336 211.617H679.906V209.978C679.906 207.656 679.253 205.898 677.956 204.702C676.655 203.473 674.756 202.859 672.26 202.859C670.548 202.859 668.906 203.149 667.334 203.729C665.757 204.276 664.409 205.044 663.28 206.034L661.638 203.32C663.005 202.159 664.647 201.271 666.564 200.656C668.477 200.007 670.497 199.683 672.619 199.683ZM671.336 224.217C673.389 224.217 675.148 223.756 676.622 222.834C678.091 221.878 679.187 220.512 679.906 218.737V214.332H671.439C666.82 214.332 664.511 215.937 664.511 219.146C664.511 220.717 665.109 221.963 666.307 222.885C667.502 223.773 669.181 224.217 671.336 224.217ZM705.831 212.795C707.748 213.239 709.218 214.007 710.244 215.1C711.307 216.193 711.835 217.525 711.835 219.095C711.835 220.666 711.289 222.066 710.193 223.295C709.134 224.524 707.679 225.48 705.831 226.163C703.984 226.812 701.95 227.137 699.725 227.137C697.775 227.137 695.861 226.863 693.977 226.317C692.097 225.736 690.455 224.9 689.051 223.807L690.283 221.093C691.514 222.015 692.951 222.732 694.593 223.244C696.235 223.756 697.896 224.012 699.571 224.012C702.071 224.012 704.105 223.551 705.677 222.629C707.286 221.673 708.089 220.393 708.089 218.788C708.089 217.354 707.44 216.244 706.139 215.459C704.842 214.639 703.06 214.229 700.802 214.229H696.184V211.566H700.597C702.617 211.566 704.24 211.19 705.472 210.439C706.704 209.654 707.319 208.612 707.319 207.315C707.319 205.881 706.619 204.754 705.215 203.934C703.848 203.115 702.052 202.705 699.827 202.705C696.921 202.705 694.047 203.439 691.206 204.907L690.18 202.09C693.398 200.417 696.734 199.581 700.187 199.581C702.239 199.581 704.086 199.888 705.729 200.502C707.407 201.083 708.705 201.919 709.629 203.012C710.589 204.105 711.065 205.368 711.065 206.802C711.065 208.168 710.589 209.381 709.629 210.439C708.705 211.497 707.44 212.283 705.831 212.795ZM737.299 212.898C740.96 213.751 742.789 215.954 742.789 219.505C742.789 221.861 741.917 223.671 740.172 224.934C738.428 226.197 735.829 226.829 732.372 226.829H720.108V199.888H732.013C735.092 199.888 737.504 200.485 739.249 201.681C740.993 202.876 741.866 204.583 741.866 206.802C741.866 208.271 741.455 209.534 740.634 210.593C739.846 211.617 738.736 212.385 737.299 212.898ZM723.649 211.873H731.757C733.842 211.873 735.433 211.481 736.529 210.695C737.658 209.91 738.222 208.766 738.222 207.263C738.222 205.761 737.658 204.634 736.529 203.883C735.433 203.132 733.842 202.756 731.757 202.756H723.649V211.873ZM732.218 223.961C734.546 223.961 736.291 223.585 737.453 222.834C738.615 222.083 739.197 220.905 739.197 219.3C739.197 217.695 738.666 216.517 737.607 215.766C736.547 214.98 734.869 214.588 732.578 214.588H723.649V223.961H732.218ZM751.326 199.888H754.97V221.298L772.981 199.888H776.214V226.829H772.571V205.42L754.61 226.829H751.326V199.888ZM805.644 203.115H795.432V226.829H791.788V203.115H781.577V199.888H805.644V203.115ZM810.911 199.888H814.554V221.298L832.566 199.888H835.799V226.829H832.156V205.42L814.195 226.829H810.911V199.888ZM866.973 199.888V226.829H863.638V217.917H855.171H854.144L847.884 226.829H843.932L850.655 217.405C848.569 216.824 846.96 215.834 845.831 214.434C844.702 213.034 844.138 211.259 844.138 209.107C844.138 206.103 845.164 203.815 847.217 202.244C849.269 200.673 852.073 199.888 855.632 199.888H866.973ZM847.832 209.21C847.832 213.205 850.38 215.202 855.479 215.202H863.638V203.115H855.735C850.468 203.115 847.832 205.146 847.832 209.21Z" fill="#1F0425"/>
<path d="M55.4505 195.483C46.0377 195.483 37.5047 193.463 29.8513 189.424C22.2859 185.298 16.3039 179.634 11.9055 172.434C7.59495 165.146 5.4397 156.937 5.4397 147.805C5.4397 138.673 7.59495 130.507 11.9055 123.307C16.3039 116.02 22.2859 110.356 29.8513 106.317C37.5047 102.19 46.0817 100.127 55.5824 100.127C63.5877 100.127 70.8012 101.532 77.223 104.341C83.7327 107.151 89.1868 111.19 93.5853 116.459L79.862 129.102C73.6162 121.902 65.8749 118.302 56.6381 118.302C50.92 118.302 45.8178 119.576 41.3314 122.122C36.8449 124.58 33.3261 128.049 30.7749 132.527C28.3118 137.005 27.0802 142.098 27.0802 147.805C27.0802 153.512 28.3118 158.605 30.7749 163.083C33.3261 167.561 36.8449 171.073 41.3314 173.62C45.8178 176.078 50.92 177.307 56.6381 177.307C65.8749 177.307 73.6162 173.663 79.862 166.376L93.5853 179.02C89.1868 184.376 83.7327 188.459 77.223 191.268C70.7132 194.078 63.4557 195.483 55.4505 195.483ZM107.518 101.707H128.762V161.766L172.835 101.707H192.892V193.902H171.78V133.976L127.707 193.902H107.518V101.707ZM286.486 119.093H256.928V193.902H235.816V119.093H206.39V101.707H286.486V119.093ZM299.908 101.707H321.153V161.766L365.226 101.707H385.281V193.902H364.17V133.976L320.097 193.902H299.908V101.707Z" fill="#1F0425"/>
<path d="M492.336 193.902L492.204 138.717L465.022 184.156H455.521L428.339 139.771V193.902H408.281V101.707H425.963L460.535 159L494.58 101.707H512.262L512.394 193.902H492.336Z" fill="white"/>
</svg>
